**ABCDEFGHIJKLMNOPQRSTUVWXYZabcdefghijklmnopqrstuvwxyz**************************
**PARASOLID !"#$%&'()*+,-./:;<=>?@[\]^_`{|}~0123456789**************************
**PART1;
MC=AMD64;
MC_MODEL=Intel64 Family 6 Model 60 Stepping 3, GenuineIntel;
MC_ID=unknown;
OS=Windows_NT;
OS_RELEASE=6.2;
FRU=Autodesk;
APPL=Autodesk Inventor 2016;
SITE=unknown;
USER=unknown;
FORMAT=text;
GUISE=transmit;
KEY=Sumo-Robot-Dohyo;
FILE=E:\3D\Sumo-Robot-Dohyo.x_t;
DATE=Mon, 29d Jan 2018d 13d:26d:46d GMT;
**PART2;
SCH=SCH_2700196_26105;
USFLD_SIZE=0;
**PART3;
**END_OF_HEADER*****************************************************************
T51 : TRANSMIT FILE created by modeller version 270019617 SCH_2700196_261050 12
 1 196 2 3 0 0 0 0 1e3 1e-8 0 0 0 1 0 1 1 4 5 6 7 8 9 10 0 0 0 0 0 0 0 81 1 2 19
6 11 1 0 0 0 0 12 70 3 0 4 T1 0 0 4 20 1 13 13 13 4 4 0 1 0 14 0 0 15 0 50 5 147
 0 16 17 0 0 +284009988914797e-31 .0998 -1052655904829778e-32 0 1 0 .70710678118
6548 0 .707106781186548 31 6 175 0 18 19 0 0 +0 0 0 0 -1 0 1 0 0 .77 29 7 195 0
 20 21 0 -.77 0 942978035343462e-31 19 8 2 0 1 15 0 22 V0 16 9 10 0 ?23 0 24 25
 0 0 1 18 10 8 0 26 0 27 28 ?1 17 26 0 29 23 30 10 31 32 0 33 -18 27 11 0 34 10
 35 36 ?1 29 28 176 0 10 0 37 .1 .0998 -.12 29 37 177 0 38 28 36 .1 .0998 -.1 18
 38 9 0 31 35 39 37 ?1 29 36 178 0 27 37 40 .1 .0999 -.12 29 40 179 0 35 36 41 .
1 .0999 -.1 18 35 13 0 42 27 38 40 ?1 29 41 180 0 39 40 43 -.1 .0998 -.12 18 39
 18 0 44 38 45 41 ?1 29 43 181 0 45 41 46 -.1 .0999 -.12 18 45 20 0 47 39 48 43
 ?1 29 46 182 0 48 43 49 -.1 .0998 -.1 18 48 25 0 50 45 51 46 ?1 29 49 183 0 51
 46 52 -.1 .0999 -.1 18 51 27 0 53 48 54 49 ?1 29 52 184 0 54 49 55 .1 .0998 .1
 18 54 38 0 56 51 57 52 ?1 29 55 185 0 58 52 59 .1 .0998 .12 18 58 39 0 60 61 62
 55 ?1 29 59 186 0 57 55 63 .1 .0999 .1 18 57 41 0 64 54 61 59 ?1 29 63 187 0 61
 59 65 .1 .0999 .12 18 61 43 0 66 57 58 63 ?1 29 65 188 0 67 63 68 -.1 .0998 .12
 18 67 48 0 69 62 70 65 ?1 29 68 189 0 62 65 71 -.1 .0999 .12 18 62 50 0 72 58 6
7 68 ?1 29 71 190 0 73 68 74 -.1 .0998 .1 18 73 55 0 75 70 76 71 ?1 29 74 191 0
 70 71 77 -.1 .0999 .1 18 70 57 0 78 67 73 74 ?1 29 77 192 0 76 74 79 -.72 .1 88
1745695386094e-31 18 76 68 0 80 73 81 77 ?1 29 79 193 0 81 77 21 -.72 .0998 8817
45695386094e-31 18 81 71 0 82 76 83 79 ?1 29 21 194 0 83 79 7 -.77 .1 9429780353
43462e-31 18 83 75 0 84 81 20 21 ?1 17 84 0 85 84 84 83 86 87 0 86 -18 20 78 0 8
8 83 0 7 ?1 17 88 0 89 88 88 20 90 18 0 90 -15 89 76 0 88 91 0 17 90 0 92 90 90
 20 88 18 0 0 +16 18 77 0 ?90 87 32 6 0 0 1 16 87 74 0 ?86 93 18 19 0 0 1 16 32
 7 0 ?31 18 94 95 0 0 1 17 31 0 96 97 98 38 26 32 0 30 +16 94 31 0 ?97 32 99 100
 0 0 1 30 95 148 0 32 0 25 0 +.1 .0998 -.06 0 0 1 30 25 149 0 9 95 101 0 +.1 .09
98 -.12 0 1 0 30 101 150 0 24 25 102 0 +.1 .0999 -.12 0 0 1 16 24 12 0 ?103 9 10
4 101 0 0 1 30 102 151 0 105 101 106 0 +.1 .0998 -.1 0 1 0 16 105 14 0 ?42 107 1
08 102 0 0 1 30 106 152 0 109 102 110 0 +-.05 .0998 -.12 1 0 177635683940025e-30
 16 109 17 0 ?98 99 111 106 0 0 1 30 110 153 0 104 106 112 0 +-.1 .0998 -.12 0 1
 0 16 104 19 0 ?113 24 114 110 0 0 1 30 112 154 0 114 110 115 0 +-.1 .0999 -.12
 1 0 177635683940025e-30 16 114 21 0 ?116 104 117 112 0 0 1 30 115 155 0 99 112
 118 0 +-.1 .0998 -.05 -888178419700125e-30 0 -1 16 99 24 0 ?119 94 109 115 0 0
 1 30 118 156 0 117 115 120 0 +-.1 .0998 -.1 0 1 0 16 117 26 0 ?121 114 107 118
 0 0 1 30 120 157 0 107 118 100 0 +-.1 .0999 -.1 -888178419700125e-30 0 -1 16 10
7 28 0 ?122 117 105 120 0 0 1 30 100 158 0 94 120 123 0 +.05 .0998 -.1 -1 0 -888
178419700125e-31 30 123 159 0 108 100 124 0 +.1 .0999 -.1 -1 0 -888178419700125e
-31 16 108 32 0 ?125 105 126 123 0 0 1 30 124 160 0 111 123 127 0 +.1 .0998 .06
 0 0 1 16 111 37 0 ?60 109 128 124 0 0 1 30 127 161 0 126 124 129 0 +.1 .0998 .1
 0 1 0 16 126 40 0 ?130 108 131 127 0 0 1 30 129 162 0 132 127 133 0 +.1 .0999 .
12 0 0 -1 16 132 42 0 ?64 134 93 129 0 0 1 30 133 163 0 131 129 135 0 +.1 .0998
 .12 0 1 0 16 131 44 0 ?136 126 137 133 0 0 1 30 135 164 0 128 133 138 0 +-.05 .
0998 .12 -1 0 177635683940025e-30 16 128 47 0 ?69 111 139 135 0 0 1 30 138 165 0
 134 135 140 0 +-.1 .0999 .12 1 0 -177635683940025e-30 16 134 49 0 ?141 142 132
 138 0 0 1 30 140 166 0 137 138 143 0 +-.1 .0998 .12 0 1 0 16 137 51 0 ?144 131
 145 140 0 0 1 30 143 167 0 139 140 146 0 +-.1 .0998 .05 888178419700125e-30 0 -
1 16 139 54 0 ?75 128 147 143 0 0 1 30 146 168 0 142 143 148 0 +-.1 .0999 .1 -88
8178419700125e-30 0 1 16 142 56 0 ?149 150 134 146 0 0 1 30 148 169 0 145 146 15
1 0 +-.1 .0998 .1 0 1 0 16 145 58 0 ?152 137 150 148 0 0 1 30 151 170 0 147 148
 153 0 +.05 .0998 .1 1 0 -888178419700125e-31 16 147 61 0 ?154 139 155 151 0 0 1
 30 153 171 0 150 151 156 0 +.1 .0999 .1 -1 0 888178419700125e-31 16 150 62 0 ?1
57 145 142 153 0 0 1 31 156 172 0 93 153 158 0 +0 .1 0 0 -1 0 1 0 0 .72 16 93 67
 0 ?159 132 87 156 0 0 1 31 158 173 0 155 156 19 0 +0 .0998 0 0 1 0 1 0 0 .72 16
 155 70 0 ?160 147 0 158 0 0 1 31 19 174 0 87 158 6 0 +0 .1 0 0 1 0 1 0 0 .77 17
 160 0 161 160 160 81 82 155 0 0 +15 161 87 0 160 16 0 17 82 0 162 82 82 81 160
 155 0 160 -15 162 69 0 82 163 0 14 163 65 164 ?91 165 166 4 167 -0 0 91 165 22
 81 1 164 120 168 163 169 0 170 171 172 14 91 72 171 ?173 163 85 4 174 +0 0 173
 163 22 14 165 63 170 ?163 175 176 4 177 +0 0 163 175 22 15 166 66 0 80 163 162
 51 167 143 0 163 177 174 0 +0 0 0 0 1 0 .72 1 0 0 13 22 3 0 0 0 0 0 0 8 14 14 1
4 5 178 ?179 0 29 4 180 +0 0 179 0 22 81 1 178 90 168 14 181 0 0 182 183 14 179
 15 182 ?184 14 185 4 186 +0 0 184 14 22 15 29 6 0 26 14 0 50 180 133 0 14 0 186
 0 +.1 .0998 -.12 1 0 0 0 .707106781186548 .707106781186548 50 186 134 0 179 180
 187 0 +-.1 .0998 -.12 177635683940025e-30 0 -1 .707106781186548 .70710678118654
8 125607396694702e-30 50 187 135 0 184 186 188 0 +-.1 .0998 -.1 -1 0 88817841970
0125e-30 62803698347351e-29 .707106781186548 .707106781186548 14 184 22 189 ?190
 179 191 4 187 +0 0 190 179 22 50 188 136 0 190 187 192 0 +.1 .0998 -.1 -8881784
19700125e-31 0 1 .707106781186548 .707106781186548 62803698347351e-30 14 190 29
 193 ?194 184 195 4 188 +0 0 194 184 22 50 192 137 0 194 188 196 0 +177635683940
025e-31 .0999 -.11 0 1 0 .707106781186548 0 .707106781186548 14 194 33 197 ?198
 190 199 4 192 +0 0 198 190 22 50 196 138 0 198 192 200 0 +.1 .0998 .12 1 0 0 0
 .707106781186548 .707106781186548 14 198 35 201 ?202 194 203 4 196 +0 0 202 194
 22 50 200 139 0 202 196 204 0 +-.1 .0998 .12 177635683940025e-30 0 1 .707106781
186548 .707106781186548 -125607396694702e-30 14 202 45 205 ?206 198 207 4 200 +0
 0 206 198 22 50 204 140 0 206 200 208 0 +-.1 .0998 .1 -1 0 -888178419700125e-30
 -62803698347351e-29 .707106781186548 .707106781186548 14 206 52 209 ?175 202 21
0 4 204 +0 0 175 202 22 50 208 141 0 175 204 177 0 +.1 .0998 .1 -888178419700125
e-31 0 -1 .707106781186548 .707106781186548 -62803698347351e-30 14 175 59 211 ?1
65 206 212 4 208 +0 0 165 206 22 50 177 142 0 165 208 167 0 +177635683940025e-31
 .0999 .11 0 1 0 .707106781186548 0 .707106781186548 81 1 211 114 168 175 213 0
 209 170 214 15 212 60 0 215 175 0 17 215 0 212 152 216 73 154 147 0 0 -17 152 0
 212 217 215 70 218 145 0 157 +17 216 0 212 215 217 54 130 126 0 154 -17 154 0 2
19 60 75 54 215 147 0 0 +15 219 86 0 60 16 161 17 60 0 219 69 154 58 56 111 0 22
0 +17 75 0 219 154 69 73 221 139 0 218 +17 69 0 219 75 60 67 222 128 0 223 +17 2
21 0 210 144 218 67 75 139 0 0 -17 218 0 210 221 78 73 152 145 0 215 -15 210 53
 0 221 206 0 17 78 0 210 218 144 70 149 142 0 152 -17 144 0 210 78 221 62 223 13
7 0 149 +17 149 0 176 141 157 62 78 142 0 0 +15 176 64 0 157 165 0 17 141 0 176
 64 149 61 72 134 0 0 +17 157 0 176 149 64 70 217 150 0 0 +17 64 0 176 157 141 5
7 66 132 0 130 +17 217 0 212 216 152 57 157 150 0 0 -17 66 0 203 220 130 61 64 1
32 0 136 -17 130 0 203 66 56 57 216 126 0 217 +15 203 36 0 56 198 0 17 56 0 203
 130 220 54 60 111 0 216 -17 220 0 203 56 66 58 136 131 0 222 -17 136 0 207 72 2
22 61 220 131 0 141 +17 222 0 207 136 223 58 69 128 0 0 -15 207 46 0 222 202 0 1
7 223 0 207 222 72 67 144 137 0 221 -17 72 0 207 223 136 62 141 134 0 144 -14 16
 84 224 ?0 225 96 4 5 +0 0 0 225 22 81 1 224 132 168 16 226 0 227 0 228 14 225 8
2 227 ?16 173 92 4 17 -0 0 16 173 22 15 96 85 0 31 16 219 81 1 227 129 168 225 2
29 0 230 224 231 14 173 79 230 ?225 91 232 4 233 +0 0 225 91 22 15 92 83 0 90 22
5 0 50 17 146 0 225 233 5 0 +284009988914797e-31 0 -1052655904829778e-32 0 1 0 .
707106781186548 0 .707106781186548 50 233 145 0 173 174 17 0 +785815029452885e-3
2 .1 0 0 1 0 .707106781186548 0 .707106781186548 51 174 144 0 91 167 233 0 +0 0
 0 0 1 0 .77 1 0 0 81 1 230 126 168 173 234 0 171 227 235 15 232 80 0 159 173 23
6 17 159 0 232 159 159 76 80 93 0 0 +15 236 81 0 86 173 0 17 86 0 236 86 86 83 8
4 87 0 0 +17 80 0 166 80 80 76 159 93 0 159 -80 1 168 237 238 8015 0 0 0 0 3 5 0
 0 0 FFFFTFFFFFFFFF2 81 2 234 125 237 173 239 230 240 229 241 242 81 1 171 123 1
68 91 240 0 164 230 243 83 1 235 0 81 2 240 122 237 91 244 171 169 234 245 246 8
3 1 243 0 80 2 237 247 248 8014 0 0 0 0 3 5 0 0 0 FFFFTFFFFFFFFF2 1 81 1 244 121
 249 91 0 240 250 239 251 81 2 169 119 237 163 250 164 252 240 253 254 83 4 245
 1 0 .92156862745098 .92156862745098 82 1 246 51 81 1 250 118 249 163 0 169 255
 244 256 81 2 252 116 237 165 255 170 213 169 257 258 83 4 253 1 0 .921568627450
98 .92156862745098 82 1 254 51 81 1 255 115 249 165 0 252 259 250 260 81 1 170 1
17 168 165 252 0 211 164 261 81 2 213 113 237 175 259 211 262 252 263 264 83 4 2
57 -1 -1 -1 -1 82 1 258 0 81 1 259 112 249 175 0 213 265 255 266 81 2 262 110 23
7 206 265 209 267 213 268 269 83 4 263 -1 -1 -1 -1 82 1 264 0 81 1 265 109 249 2
06 0 262 270 259 271 81 1 209 111 168 206 262 0 205 211 272 81 2 267 107 237 202
 270 205 273 262 274 275 83 4 268 -1 -1 -1 -1 82 1 269 0 81 1 270 106 249 202 0
 267 276 265 277 81 1 205 108 168 202 267 0 201 209 278 81 2 273 104 237 198 276
 201 279 267 280 281 83 4 274 -1 -1 -1 -1 82 1 275 0 81 1 276 103 249 198 0 273
 282 270 283 81 1 201 105 168 198 273 0 197 205 284 81 2 279 101 237 194 282 197
 285 273 286 287 83 4 280 -1 -1 -1 -1 82 1 281 0 81 1 282 100 249 194 0 279 288
 276 289 81 1 197 102 168 194 279 0 193 201 290 81 2 285 98 237 190 288 193 291
 279 292 293 83 4 286 -1 -1 -1 -1 82 1 287 0 81 1 288 97 249 190 0 285 294 282 2
95 81 1 193 99 168 190 285 0 189 197 296 81 2 291 95 237 184 294 189 297 285 298
 299 83 4 292 -1 -1 -1 -1 82 1 293 0 81 1 294 94 249 184 0 291 300 288 301 81 1
 189 96 168 184 291 0 182 193 302 81 2 297 92 237 179 300 182 181 291 303 304 83
 4 298 -1 -1 -1 -1 82 1 299 0 81 1 300 91 249 179 0 297 305 294 306 81 1 182 93
 168 179 297 0 178 189 307 81 2 181 89 237 14 305 178 0 297 308 309 83 4 303 -1
 -1 -1 -1 82 1 304 0 81 1 305 88 249 14 0 181 0 300 310 83 4 308 -1 -1 -1 -1 82
 1 309 0 80 1 249 0 311 8001 0 0 0 0 3 5 0 0 0 FFFFTFTFFFFFFF2 83 3 310 .6705882
54928589 .3882353007793425 .39215686917305 79 15 311 SDL/TYSA_COLOUR83 1 307 0 8
3 3 306 .670588254928589 .3882353007793425 .39215686917305 83 1 302 0 83 3 301 .
670588254928589 .3882353007793425 .39215686917305 83 1 296 0 83 3 295 .670588254
928589 .3882353007793425 .39215686917305 83 1 290 0 83 3 289 .670588254928589 .3
882353007793425 .39215686917305 83 1 284 0 83 3 283 .670588254928589 .3882353007
793425 .39215686917305 83 1 278 0 83 3 277 .670588254928589 .3882353007793425 .3
9215686917305 83 1 272 0 83 3 271 .670588254928589 .3882353007793425 .3921568691
7305 83 3 266 .670588254928589 .3882353007793425 .39215686917305 83 1 261 0 83 3
 260 .670588254928589 .3882353007793425 .39215686917305 83 3 256 .94666667779286
7 .946666677792867 .946666677792867 81 1 239 124 249 173 0 234 244 312 313 83 3
 251 .946666677792867 .946666677792867 .946666677792867 81 1 312 127 249 225 0 2
29 239 314 315 83 3 313 .946666677792867 .946666677792867 .946666677792867 81 2
 229 128 237 225 312 227 234 226 316 317 81 1 314 130 249 16 0 226 312 0 318 83
 3 315 .3333333333333335 .3333333333333335 .3333333333333335 81 2 226 131 237 16
 314 224 229 0 319 320 83 3 318 .3333333333333335 .3333333333333335 .33333333333
33335 83 4 319 1 0 0 0 82 1 320 54 83 4 316 1 0 0 0 82 1 317 54 79 21 248 SDL/TY
SA_REFLECTIVITY83 4 241 1 0 .92156862745098 .92156862745098 82 1 242 51 79 21 23
8 SDL/TYSA_TRANSLUCENCY83 1 231 0 83 1 228 0 83 1 214 0 15 199 34 0 321 194 0 17
 321 0 199 34 53 35 125 108 0 0 -17 34 0 199 47 321 27 103 24 0 23 -17 53 0 199
 321 47 51 122 107 0 121 -17 125 0 195 322 42 51 321 108 0 0 +15 195 30 0 323 19
0 0 17 322 0 195 323 125 48 121 117 0 97 -17 42 0 195 125 323 35 30 105 0 103 +1
7 323 0 195 42 322 38 97 94 0 0 -17 30 0 29 26 103 38 42 105 0 323 -17 103 0 29
 30 23 35 34 24 0 321 +17 23 0 29 103 26 27 33 9 0 116 +17 33 0 185 44 116 10 23
 9 0 98 -17 116 0 185 33 113 27 47 114 0 0 +15 185 16 0 44 179 0 17 113 0 185 11
6 44 45 324 104 0 122 +17 47 0 199 53 34 45 116 114 0 113 -17 44 0 185 113 33 39
 98 109 0 324 -17 324 0 191 50 122 39 113 104 0 119 -17 122 0 191 324 121 45 53
 107 0 0 +15 191 23 0 50 184 0 17 121 0 191 122 50 51 322 117 0 125 +17 50 0 191
 121 324 48 119 99 0 322 -17 119 0 96 98 97 39 50 99 0 0 +17 98 0 96 31 119 10 4
4 109 0 0 +17 97 0 96 119 31 48 323 94 0 0 +83 1 183 0 15 85 73 0 84 91 89 83 1
 172 0 19 15 1 0 1 0 8 4 S0 74 20 13 4 0 0 314 226 224 2 0 0 0 0 0 0 0 0 0 0 0 0
 0 0 0 0 80 1 11 325 326 8017 0 0 0 0 0 0 0 0 0 TTTTTTTTTTTTTF3 84 6 12 Solid179
 13 326 SDL/TYSA_NAME1 0 
